<svg width="376" height="16" viewBox="0 0 376 16" fill="none" xmlns="http://www.w3.org/2000/svg">
<path d="M2 0C1.08937 0 0.320885 0.608597 0.0790983 1.44124L14.5382 6.829C14.8512 6.94565 15.0588 7.24456 15.0588 7.57865V8.6768C15.0588 9.23465 14.5022 9.62123 13.9795 9.42645L0 4.21739V6.14749L14.5382 11.5647C14.8512 11.6814 15.0588 11.9803 15.0588 12.3144V14.0684C15.0588 14.4025 14.8512 14.7014 14.5382 14.8181L11.3662 16H14C15.1046 16 16 15.1046 16 14V2C16 0.895431 15.1046 0 14 0H2Z" fill="#4ACDFE"/>
<path d="M1.68866 15.9759L8.26592 13.9561C9.01946 13.7247 9.01946 12.658 8.26591 12.4266L0 9.88832V14C0 14.9987 0.731956 15.8264 1.68866 15.9759Z" fill="#4ACDFE"/>
<path d="M26 1.7H30.95C32.678 1.7 34.112 2.306 35.252 3.518C36.404 4.73 36.98 6.224 36.98 8C36.98 9.764 36.404 11.258 35.252 12.482C34.112 13.694 32.678 14.3 30.95 14.3H26V1.7ZM28.07 12.32H30.95C32.138 12.32 33.104 11.912 33.848 11.096C34.604 10.28 34.982 9.248 34.982 8C34.982 6.752 34.604 5.72 33.848 4.904C33.104 4.088 32.138 3.68 30.95 3.68H28.07V12.32Z" fill="#4ACDFE"/>
<path d="M42.7372 8.918V12.32H48.3172V14.3H40.6672V1.7H48.2272V3.68H42.7372V6.956H47.7772V8.918H42.7372Z" fill="#4ACDFE"/>
<path d="M57.8646 14.534C55.9686 14.534 54.3966 13.91 53.1486 12.662C51.9006 11.39 51.2766 9.836 51.2766 8C51.2766 6.152 51.9006 4.604 53.1486 3.356C54.3846 2.096 55.9566 1.466 57.8646 1.466C59.0046 1.466 60.0546 1.736 61.0146 2.276C61.9866 2.816 62.7426 3.548 63.2826 4.472L61.4826 5.516C61.1466 4.892 60.6546 4.4 60.0066 4.04C59.3706 3.668 58.6566 3.482 57.8646 3.482C56.5326 3.482 55.4406 3.908 54.5886 4.76C53.7606 5.6 53.3466 6.68 53.3466 8C53.3466 9.32 53.7606 10.4 54.5886 11.24C55.4406 12.092 56.5326 12.518 57.8646 12.518C58.6566 12.518 59.3766 12.338 60.0246 11.978C60.6726 11.606 61.1586 11.108 61.4826 10.484L63.2826 11.51C62.7666 12.422 62.0166 13.16 61.0326 13.724C60.0846 14.264 59.0286 14.534 57.8646 14.534Z" fill="#4ACDFE"/>
<path d="M68.8723 8.918V12.32H74.4523V14.3H66.8023V1.7H74.3624V3.68H68.8723V6.956H73.9123V8.918H68.8723Z" fill="#4ACDFE"/>
<path d="M85.7073 10.25V1.7H87.7773V14.3H86.1573L80.2173 5.75V14.3H78.1473V1.7H79.7673L85.7073 10.25Z" fill="#4ACDFE"/>
<path d="M91.1038 1.7H100.284V3.68H96.7377V14.3H94.6677V3.68H91.1038V1.7Z" fill="#4ACDFE"/>
<path d="M113.064 14.3H110.796L108.132 9.71H105.684V14.3H103.614V1.7H108.654C109.782 1.7 110.736 2.096 111.516 2.888C112.308 3.656 112.704 4.61 112.704 5.75C112.704 6.554 112.47 7.292 112.002 7.964C111.546 8.624 110.946 9.104 110.202 9.404L113.064 14.3ZM108.654 3.644H105.684V7.856H108.654C109.206 7.856 109.674 7.652 110.058 7.244C110.442 6.836 110.634 6.338 110.634 5.75C110.634 5.162 110.442 4.664 110.058 4.256C109.674 3.848 109.206 3.644 108.654 3.644Z" fill="#4ACDFE"/>
<path d="M126.894 14.3H124.662L123.78 11.762H118.416L117.534 14.3H115.284L119.856 1.7H122.34L126.894 14.3ZM121.098 4.13L119.1 9.818H123.096L121.098 4.13Z" fill="#4ACDFE"/>
<path d="M132.118 1.7V12.32H137.248V14.3H130.048V1.7H132.118Z" fill="#4ACDFE"/>
<path d="M140.585 14.3V1.7H142.655V14.3H140.585Z" fill="#4ACDFE"/>
<path d="M154.623 3.41L148.971 12.32H154.767V14.3H146.397V12.59L152.049 3.68H146.523V1.7H154.623V3.41Z" fill="#4ACDFE"/>
<path d="M160.388 8.918V12.32H165.968V14.3H158.318V1.7H165.878V3.68H160.388V6.956H165.428V8.918H160.388Z" fill="#4ACDFE"/>
<path d="M169.663 1.7H174.613C176.34 1.7 177.775 2.306 178.915 3.518C180.066 4.73 180.643 6.224 180.643 8C180.643 9.764 180.066 11.258 178.915 12.482C177.775 13.694 176.34 14.3 174.613 14.3H169.663V1.7ZM171.733 12.32H174.613C175.801 12.32 176.767 11.912 177.511 11.096C178.267 10.28 178.645 9.248 178.645 8C178.645 6.752 178.267 5.72 177.511 4.904C176.767 4.088 175.801 3.68 174.613 3.68H171.733V12.32Z" fill="#4ACDFE"/>
<path d="M196.588 14.534C194.692 14.534 193.12 13.91 191.872 12.662C190.624 11.39 190 9.836 190 8C190 6.152 190.624 4.604 191.872 3.356C193.108 2.096 194.68 1.466 196.588 1.466C197.728 1.466 198.778 1.736 199.738 2.276C200.71 2.816 201.466 3.548 202.006 4.472L200.206 5.516C199.87 4.892 199.378 4.4 198.73 4.04C198.094 3.668 197.38 3.482 196.588 3.482C195.256 3.482 194.164 3.908 193.312 4.76C192.484 5.6 192.07 6.68 192.07 8C192.07 9.32 192.484 10.4 193.312 11.24C194.164 12.092 195.256 12.518 196.588 12.518C197.38 12.518 198.1 12.338 198.748 11.978C199.396 11.606 199.882 11.108 200.206 10.484L202.006 11.51C201.49 12.422 200.74 13.16 199.756 13.724C198.808 14.264 197.752 14.534 196.588 14.534Z" fill="#4ACDFE"/>
<path d="M214.975 14.3H212.707L210.043 9.71H207.595V14.3H205.525V1.7H210.565C211.693 1.7 212.647 2.096 213.427 2.888C214.219 3.656 214.615 4.61 214.615 5.75C214.615 6.554 214.381 7.292 213.913 7.964C213.457 8.624 212.857 9.104 212.113 9.404L214.975 14.3ZM210.565 3.644H207.595V7.856H210.565C211.117 7.856 211.585 7.652 211.969 7.244C212.353 6.836 212.545 6.338 212.545 5.75C212.545 5.162 212.353 4.664 211.969 4.256C211.585 3.848 211.117 3.644 210.565 3.644Z" fill="#4ACDFE"/>
<path d="M225.339 1.7H227.697L223.305 9.296V14.3H221.235V9.296L216.843 1.7H219.201L222.279 7.28L225.339 1.7Z" fill="#4ACDFE"/>
<path d="M230.852 1.7H235.496C236.684 1.7 237.674 2.096 238.466 2.888C239.27 3.68 239.672 4.664 239.672 5.84C239.672 7.004 239.27 7.988 238.466 8.792C237.674 9.584 236.684 9.98 235.496 9.98H232.922V14.3H230.852V1.7ZM232.922 8.036H235.496C236.108 8.036 236.612 7.832 237.008 7.424C237.404 7.004 237.602 6.476 237.602 5.84C237.602 5.204 237.404 4.682 237.008 4.274C236.612 3.854 236.108 3.644 235.496 3.644H232.922V8.036Z" fill="#4ACDFE"/>
<path d="M242.015 1.7H251.195V3.68H247.649V14.3H245.579V3.68H242.015V1.7Z" fill="#4ACDFE"/>
<path d="M264.335 12.644C263.075 13.904 261.533 14.534 259.709 14.534C257.885 14.534 256.337 13.904 255.065 12.644C253.805 11.372 253.175 9.824 253.175 8C253.175 6.176 253.805 4.634 255.065 3.374C256.337 2.102 257.885 1.466 259.709 1.466C261.533 1.466 263.075 2.102 264.335 3.374C265.607 4.634 266.243 6.176 266.243 8C266.243 9.824 265.607 11.372 264.335 12.644ZM256.523 11.24C257.399 12.092 258.461 12.518 259.709 12.518C260.969 12.518 262.025 12.092 262.877 11.24C263.741 10.376 264.173 9.296 264.173 8C264.173 6.704 263.741 5.63 262.877 4.778C262.025 3.914 260.969 3.482 259.709 3.482C258.449 3.482 257.387 3.914 256.523 4.778C255.671 5.63 255.245 6.704 255.245 8C255.245 9.284 255.671 10.364 256.523 11.24Z" fill="#4ACDFE"/>
<path d="M276.232 1.7H280.876C282.064 1.7 283.054 2.096 283.846 2.888C284.65 3.68 285.052 4.664 285.052 5.84C285.052 7.004 284.65 7.988 283.846 8.792C283.054 9.584 282.064 9.98 280.876 9.98H278.302V14.3H276.232V1.7ZM278.302 8.036H280.876C281.488 8.036 281.992 7.832 282.388 7.424C282.784 7.004 282.982 6.476 282.982 5.84C282.982 5.204 282.784 4.682 282.388 4.274C281.992 3.854 281.488 3.644 280.876 3.644H278.302V8.036Z" fill="#4ACDFE"/>
<path d="M290.719 1.7V12.32H295.849V14.3H288.649V1.7H290.719Z" fill="#4ACDFE"/>
<path d="M309.977 14.3H307.745L306.863 11.762H301.499L300.617 14.3H298.367L302.939 1.7H305.423L309.977 14.3ZM304.181 4.13L302.183 9.818H306.179L304.181 4.13Z" fill="#4ACDFE"/>
<path d="M311.245 1.7H320.425V3.68H316.879V14.3H314.809V3.68H311.245V1.7Z" fill="#4ACDFE"/>
<path d="M331.136 1.7V3.68H325.826V7.208H330.956V9.188H325.826V14.3H323.756V1.7H331.136Z" fill="#4ACDFE"/>
<path d="M345.402 12.644C344.142 13.904 342.6 14.534 340.776 14.534C338.952 14.534 337.404 13.904 336.132 12.644C334.872 11.372 334.242 9.824 334.242 8C334.242 6.176 334.872 4.634 336.132 3.374C337.404 2.102 338.952 1.466 340.776 1.466C342.6 1.466 344.142 2.102 345.402 3.374C346.674 4.634 347.31 6.176 347.31 8C347.31 9.824 346.674 11.372 345.402 12.644ZM337.59 11.24C338.466 12.092 339.528 12.518 340.776 12.518C342.036 12.518 343.092 12.092 343.944 11.24C344.808 10.376 345.24 9.296 345.24 8C345.24 6.704 344.808 5.63 343.944 4.778C343.092 3.914 342.036 3.482 340.776 3.482C339.516 3.482 338.454 3.914 337.59 4.778C336.738 5.63 336.312 6.704 336.312 8C336.312 9.284 336.738 10.364 337.59 11.24Z" fill="#4ACDFE"/>
<path d="M360.448 14.3H358.18L355.516 9.71H353.068V14.3H350.998V1.7H356.038C357.166 1.7 358.12 2.096 358.9 2.888C359.692 3.656 360.088 4.61 360.088 5.75C360.088 6.554 359.854 7.292 359.386 7.964C358.93 8.624 358.33 9.104 357.586 9.404L360.448 14.3ZM356.038 3.644H353.068V7.856H356.038C356.59 7.856 357.058 7.652 357.442 7.244C357.826 6.836 358.018 6.338 358.018 5.75C358.018 5.162 357.826 4.664 357.442 4.256C357.058 3.848 356.59 3.644 356.038 3.644Z" fill="#4ACDFE"/>
<path d="M373.684 1.7H375.897V14.3H373.827V5.318L369.993 11.654H369.741L365.908 5.3V14.3H363.837V1.7H366.069L369.867 8L373.684 1.7Z" fill="#4ACDFE"/>
</svg>
