<svg width="36" height="36" viewBox="0 0 36 36" fill="none" xmlns="http://www.w3.org/2000/svg">
<g filter="url(#filter0_i_2_508)">
<rect width="36" height="36" rx="6" fill="#1B314F"/>
<rect x="0.5" y="0.5" width="35" height="35" rx="5.5" stroke="url(#paint0_linear_2_508)" style="mix-blend-mode:overlay"/>
<path d="M10.1883 20.0325L10.8644 14.3327L5 9.76473L10.3582 11.8012L11.6237 9.62274L16.2444 6.4057L26.4294 12.7018L26.9572 22.3083L22.4197 29.3834L18.8331 30L20.6879 26.1907V22.5233L19.3393 19.6593L17.969 18.641L15.8611 21.0791V23.6593L14.216 25.3874L12.1262 25.6714L11.2007 26.2597L9.68213 25.716L9.04941 23.1603L10.1883 21.3631V20.0325Z" fill="white"/>
<path d="M19.5525 9.71594C18.4353 9.4563 17.2133 9.52527 17.2133 9.52527C17.2133 9.52527 16.812 11.6064 14.3245 12.1541C14.3425 12.1541 17.611 13.4076 19.5525 9.71594Z" fill="#94A6C3"/>
<path d="M20.5649 28.6004C21.9135 27.4158 22.9259 25.785 23.3923 23.9391C23.414 23.8702 23.602 23.7485 23.7285 23.6552C23.9382 23.5132 24.1515 23.3955 24.1913 23.2049C24.2745 22.6613 24.3179 22.0933 24.3179 21.5253C24.3179 21.3144 24.1262 21.0994 23.9382 20.8884C23.79 20.7464 23.6418 20.5801 23.6418 20.4625C23.4321 18.3083 22.5462 16.2961 21.1326 14.8316L20.9843 14.998C22.3546 16.4422 23.2404 18.4057 23.4321 20.4868C23.4537 20.6775 23.6201 20.8641 23.79 21.0548C23.9382 21.1968 24.1082 21.4118 24.1082 21.5051C24.1082 22.0487 24.0648 22.5923 23.9816 23.1359C23.9599 23.2292 23.7719 23.3266 23.6237 23.4199C23.414 23.5375 23.2224 23.6552 23.1826 23.8458C22.6764 25.858 21.5158 27.6105 19.9756 28.7464C20.2504 28.0852 21.1145 25.931 21.5773 24.8398L21.4941 21.3387L18.815 18.43L17.2965 18.6653L15.6297 21.6957C15.6297 21.6957 16.4107 22.8073 15.3115 24.1095C14.2377 25.3874 13.3917 25.6714 13.3917 25.6714L12.6107 25.1967C12.8421 24.8641 13.3085 24.3692 13.6665 24.0365C14.2775 23.4686 14.8885 23.4199 14.8885 22.8073C14.9138 21.5253 13.6882 21.8783 13.6882 21.8783L13.2434 22.3529L13.0554 24.1055L12.1299 25.4077L12.025 25.3834L10.5065 25.0061C10.5065 25.0061 11.4357 24.4625 11.5839 23.8458C11.7321 23.2535 11.2874 21.2901 11.2657 21.1724C11.2874 21.1968 11.7104 21.5984 11.8985 22.2596C12.2347 21.217 12.6794 20.2231 12.806 20.1298C12.9325 20.0365 14.639 19.0183 14.639 19.0183L14.0714 20.6978L14.4944 20.4381L15.5068 17.6471C15.5068 17.6471 16.4974 17.1034 17.235 17.1034C18.5619 17.0791 20.5252 15.2576 19.6393 11.9919C19.8924 12.1095 24.2781 14.572 25.0374 19.3996C25.605 23.1116 23.7285 26.5882 20.5649 28.6004Z" fill="#94A6C3"/>
<path d="M15.5466 10.2352C16.031 9.59422 15.843 8.64899 15.843 8.64899L14.4294 10.9938C14.4077 10.9938 14.9319 11.0182 15.5466 10.2352Z" fill="#1B314F"/>
<path d="M10.7993 23.0386L10.9692 22.0933C10.9692 22.0933 10.2714 23.4645 10.21 23.6552C10.1449 23.8702 10.2534 24.2475 10.5245 24.2231C10.7993 24.1988 11.1355 23.7485 11.1355 23.4199C11.1355 22.9939 10.7993 23.0386 10.7993 23.0386Z" fill="#1B314F"/>
<path d="M14.7439 15.8459C15.1452 15.3266 14.9355 14.357 14.1943 14.1907C14.3859 13.6958 14.6571 12.7018 14.6571 12.7018C14.6571 12.7018 12.5058 16.4868 12.3178 16.5599C12.1262 16.6329 11.9382 15.8012 11.9382 15.8012C11.5369 17.5294 12.6143 17.7647 12.7409 17.2211C13.3302 17.0507 14.3425 16.3408 14.7439 15.8459Z" fill="#1B314F"/>
<path d="M12.9072 16.7667L14.0027 14.6612C14.0027 14.6612 14.6354 15.0182 14.3172 15.5861C13.9195 16.2474 12.9072 16.7667 12.9072 16.7667Z" fill="#FFD923"/>
<path d="M26.4691 26.5193C26.1509 26.9939 25.793 27.4889 25.3736 27.9635C28.0925 22.0933 25.5001 16.7221 25.3953 16.5112C25.5869 16.7262 25.7749 16.9615 25.9449 17.1724C28.031 19.7728 28.2841 23.6795 26.4691 26.5193Z" fill="#D82122"/>
<path d="M29 18.9695C28.0491 16.1054 26.7005 13.6673 23.7285 11.4685C20.8614 9.33869 17.7809 9.50502 17.611 9.52936C17.5893 9.52936 17.5676 9.52936 17.5676 9.52936C17.6725 9.48068 17.7773 9.45634 17.8822 9.43606C18.5366 9.20076 19.379 9.01009 20.2251 8.89245C22.4631 8.53139 24.7192 9.38332 26.2594 11.2089C26.2811 11.2332 26.2811 11.2332 26.3028 11.2576C28.0527 13.3387 28.9602 15.9391 29 18.9695Z" fill="#D82122"/>
<path d="M23.0524 7.25339C19.9105 6.59213 17.8858 6.92073 16.4287 7.53737C16.3853 7.3467 16.2371 6.96942 16.1105 6.6611C15.6731 7.25339 15.2067 7.96333 14.9138 8.41363C14.1111 9.03027 13.7749 9.62256 13.7749 9.62256C14.2377 7.84568 15.5899 6.52317 17.235 6.19051C17.6978 6.0972 18.2039 6.04852 18.7535 6.04852C20.207 6.07286 21.6604 6.47449 23.0524 7.25339Z" fill="#D82122"/>
<path d="M11.432 11.7972C8.96622 11.7039 9.78695 8.48282 9.83034 8.2962C9.83034 8.32054 9.99665 10.8276 11.432 11.7972Z" fill="#D82122"/>
<path d="M13.8581 6C11.9599 7.27789 12.3395 10.3286 12.3395 10.3286C10.5245 7.23327 13.7098 6.07302 13.8581 6Z" fill="#D82122"/>
<path d="M10.7379 12.649C10.8644 12.7667 10.991 12.9817 10.8427 13.29C10.7596 13.4563 10.633 13.432 10.4414 13.3387C10.1883 13.1967 8.66979 12.2028 7.2995 11.1845C8.86142 11.8011 10.4414 12.4624 10.6945 12.6044C10.6945 12.6044 10.7162 12.6287 10.7379 12.649Z" fill="white"/>
</g>
<defs>
<filter id="filter0_i_2_508" x="0" y="0" width="36" height="40" filterUnits="userSpaceOnUse" color-interpolation-filters="sRGB">
<feFlood flood-opacity="0" result="BackgroundImageFix"/>
<feBlend mode="normal" in="SourceGraphic" in2="BackgroundImageFix" result="shape"/>
<feColorMatrix in="SourceAlpha" type="matrix" values="0 0 0 0 0 0 0 0 0 0 0 0 0 0 0 0 0 0 127 0" result="hardAlpha"/>
<feOffset dy="4"/>
<feGaussianBlur stdDeviation="2"/>
<feComposite in2="hardAlpha" operator="arithmetic" k2="-1" k3="1"/>
<feColorMatrix type="matrix" values="0 0 0 0 1 0 0 0 0 1 0 0 0 0 1 0 0 0 0.25 0"/>
<feBlend mode="overlay" in2="shape" result="effect1_innerShadow_2_508"/>
</filter>
<linearGradient id="paint0_linear_2_508" x1="18" y1="0" x2="18" y2="7.41176" gradientUnits="userSpaceOnUse">
<stop stop-color="white" stop-opacity="0.5"/>
<stop offset="1" stop-color="white" stop-opacity="0"/>
</linearGradient>
</defs>
</svg>
