<svg width="36" height="36" viewBox="0 0 36 36" fill="none" xmlns="http://www.w3.org/2000/svg">
<g filter="url(#filter0_i_2_373)">
<rect width="36" height="36" rx="6" fill="#196DEA"/>
<rect x="0.5" y="0.5" width="35" height="35" rx="5.5" stroke="url(#paint0_linear_2_373)" style="mix-blend-mode:overlay"/>
<path d="M18.1965 8.02982V8.03976C18.2065 8.08946 18.2065 8.1491 18.2065 8.20875V15.3757C18.1965 15.4155 18.1664 15.4254 18.1364 15.4453C17.9258 15.5447 17.7253 15.6342 17.5148 15.7236C17.224 15.8529 16.9233 15.992 16.6325 16.1212L15.5798 16.5984C15.2891 16.7276 14.9983 16.8568 14.7176 16.986C14.3767 17.1451 14.0258 17.2942 13.685 17.4532C13.3942 17.5825 13.1035 17.7216 12.8027 17.8509C12.5621 17.9602 12.3215 18.0596 12.0909 18.1689C12.0708 18.1789 12.0508 18.1888 12.0307 18.1888C12.0207 18.1888 12.0207 18.1888 12.0107 18.1789L12.2814 17.7316C12.8027 16.8767 13.314 16.0318 13.8354 15.1769C14.3868 14.2624 14.9482 13.3479 15.4996 12.4334C16.0109 11.5885 16.5323 10.7435 17.0436 9.8986C17.4145 9.2823 17.7955 8.666 18.1664 8.0497C18.1765 8.02982 18.1865 8.01988 18.1865 8H18.1965C18.1865 8.00994 18.1965 8.01988 18.1965 8.02982Z" fill="white"/>
<path d="M24.3547 18.179L24.3648 18.1889L22.891 19.0537L18.2592 21.7674C18.2391 21.7773 18.2191 21.7873 18.209 21.7972C18.179 21.7972 18.179 21.7674 18.179 21.7575V21.668V15.5249C18.179 15.4951 18.179 15.4553 18.189 15.4255C18.199 15.3857 18.2291 15.3957 18.2592 15.4056C18.3895 15.4653 18.5299 15.5249 18.6602 15.5845C19.0512 15.7635 19.4422 15.9424 19.8332 16.1114C20.1741 16.2605 20.5049 16.4195 20.8458 16.5686C21.1866 16.7177 21.5275 16.8768 21.8684 17.0259C22.1591 17.1551 22.4599 17.2943 22.7506 17.4235C23.0414 17.5527 23.3422 17.6919 23.6329 17.8211C23.8635 17.9205 24.0941 18.0299 24.3247 18.1293C24.3247 18.1591 24.3347 18.169 24.3547 18.179Z" fill="white"/>
<path d="M18.1965 27.9702C18.1965 27.9801 18.1865 27.9901 18.1865 28H18.1765C18.1765 27.9801 18.1564 27.9702 18.1464 27.9503C17.5248 27.0855 16.9032 26.2108 16.2816 25.3459C15.65 24.4613 15.0084 23.5666 14.3767 22.6819C13.7652 21.8271 13.1436 20.9623 12.532 20.1074C12.3716 19.8788 12.2112 19.6601 12.0508 19.4315C12.0408 19.4116 12.0307 19.4016 12.0107 19.3718C12.0408 19.3718 12.0608 19.3917 12.0708 19.4016C12.9431 19.9086 13.8053 20.4156 14.6775 20.9225C15.6801 21.509 16.6726 22.0955 17.6752 22.6819L18.1865 22.9802C18.2065 23 18.2065 23.0199 18.2065 23.0398V27.831C18.2065 27.8807 18.2065 27.9304 18.1965 27.9702Z" fill="white"/>
<path d="M12 18.1988V18.1889C12.3208 18.0497 12.6316 17.9006 12.9524 17.7615C13.3635 17.5726 13.7745 17.3937 14.1856 17.2048C14.4964 17.0657 14.8172 16.9166 15.128 16.7774C15.5892 16.5686 16.0403 16.3698 16.5015 16.1611C16.8123 16.0219 17.1231 15.8828 17.4439 15.7337C17.6645 15.6343 17.8951 15.5349 18.1156 15.4355C18.1357 15.4255 18.1658 15.4156 18.1758 15.3957C18.1858 15.3957 18.1858 15.4056 18.1758 15.4156V21.7276C18.1758 21.7575 18.1658 21.7873 18.1858 21.8072C18.1658 21.837 18.1457 21.8072 18.1357 21.7972C18.0455 21.7475 17.9552 21.6978 17.865 21.6382C15.93 20.505 13.9851 19.3619 12.0501 18.2287C12.0401 18.2187 12.0201 18.2088 12 18.1988Z" fill="white"/>
<path d="M24.3318 19.3718H24.3419C24.3419 19.3917 24.3218 19.4116 24.3118 19.4315C22.4671 22.006 20.6223 24.5905 18.7776 27.165C18.5871 27.4334 18.3866 27.7018 18.1961 27.9702C18.1861 27.9602 18.1861 27.9503 18.1861 27.9403V27.8807V23.0597V22.9702C18.6072 22.7217 19.0182 22.4831 19.4393 22.2346C21.0635 21.2804 22.6876 20.336 24.3018 19.3818C24.3118 19.3917 24.3218 19.3818 24.3318 19.3718Z" fill="white"/>
<path opacity="0.75" d="M18.1884 15.4157V15.3958V15.3362V8.1195C18.1884 8.08968 18.1784 8.0698 18.1984 8.03998C20.2336 11.3899 22.2688 14.7298 24.294 18.0797C24.3141 18.1095 24.3442 18.1493 24.3542 18.1891C24.2138 18.1394 24.0835 18.0698 23.9532 18.0101C23.7927 17.9406 23.6223 17.861 23.4619 17.7915C23.3616 17.7417 23.2514 17.702 23.1511 17.6523C22.9807 17.5728 22.8102 17.5032 22.6398 17.4237C22.5395 17.3839 22.4393 17.3342 22.339 17.2845L21.6773 16.9863C21.567 16.9366 21.4568 16.8869 21.3364 16.8372L20.8552 16.6284C20.755 16.5887 20.6547 16.539 20.5544 16.4893L19.8928 16.1911C19.7825 16.1414 19.6722 16.0917 19.5519 16.042L19.0706 15.8332C18.9604 15.7835 18.8601 15.7338 18.7498 15.6841C18.5593 15.5946 18.3688 15.5052 18.1683 15.4257C18.1984 15.4157 18.1884 15.4157 18.1884 15.4157Z" fill="white"/>
</g>
<defs>
<filter id="filter0_i_2_373" x="0" y="0" width="36" height="40" filterUnits="userSpaceOnUse" color-interpolation-filters="sRGB">
<feFlood flood-opacity="0" result="BackgroundImageFix"/>
<feBlend mode="normal" in="SourceGraphic" in2="BackgroundImageFix" result="shape"/>
<feColorMatrix in="SourceAlpha" type="matrix" values="0 0 0 0 0 0 0 0 0 0 0 0 0 0 0 0 0 0 127 0" result="hardAlpha"/>
<feOffset dy="4"/>
<feGaussianBlur stdDeviation="2"/>
<feComposite in2="hardAlpha" operator="arithmetic" k2="-1" k3="1"/>
<feColorMatrix type="matrix" values="0 0 0 0 1 0 0 0 0 1 0 0 0 0 1 0 0 0 0.25 0"/>
<feBlend mode="overlay" in2="shape" result="effect1_innerShadow_2_373"/>
</filter>
<linearGradient id="paint0_linear_2_373" x1="18" y1="0" x2="18" y2="7.41176" gradientUnits="userSpaceOnUse">
<stop stop-color="white" stop-opacity="0.5"/>
<stop offset="1" stop-color="white" stop-opacity="0"/>
</linearGradient>
</defs>
</svg>
