<svg width="36" height="36" viewBox="0 0 36 36" fill="none" xmlns="http://www.w3.org/2000/svg">
<g filter="url(#filter0_i_2_381)">
<rect width="36" height="36" rx="6" fill="#F3BA2F"/>
<rect x="0.5" y="0.5" width="35" height="35" rx="5.5" stroke="url(#paint0_linear_2_381)" style="mix-blend-mode:overlay"/>
<path d="M17.6223 7.54592L11.8909 13.2767C11.6742 13.4934 11.6742 13.8292 11.8909 14.0459L13.2885 15.4434C13.5052 15.6601 13.8411 15.6601 14.0578 15.4434L17.6223 11.8792C17.839 11.6626 18.1749 11.6626 18.3916 11.8792L21.9561 15.4434C22.1728 15.6601 22.5087 15.6601 22.7254 15.4434L24.123 14.0459C24.3397 13.8292 24.3397 13.4934 24.123 13.2767L18.3916 7.54592C18.1749 7.34008 17.8282 7.34008 17.6223 7.54592Z" fill="#0B0F15"/>
<path d="M17.6223 28.4543L11.8909 22.7234C11.6742 22.5068 11.6742 22.1709 11.8909 21.9543L13.2885 20.5568C13.5052 20.3401 13.8411 20.3401 14.0578 20.5568L17.6223 24.1209C17.839 24.3376 18.1749 24.3376 18.3916 24.1209L21.9561 20.5568C22.1728 20.3401 22.5087 20.3401 22.7254 20.5568L24.123 21.9543C24.3397 22.1709 24.3397 22.5068 24.123 22.7234L18.3916 28.4543C18.1749 28.6601 17.8282 28.6601 17.6223 28.4543Z" fill="#0B0F15"/>
<path d="M26.7785 15.9416L28.447 17.6099C28.6637 17.8266 28.6637 18.1624 28.447 18.3791L26.7785 20.0474C26.5618 20.2641 26.2259 20.2641 26.0092 20.0474L24.3407 18.3791C24.1241 18.1624 24.1241 17.8266 24.3407 17.6099L26.0092 15.9416C26.2259 15.7358 26.5726 15.7358 26.7785 15.9416Z" fill="#0B0F15"/>
<path d="M9.98266 15.9416L11.6512 17.6099C11.8678 17.8266 11.8678 18.1624 11.6512 18.3791L9.98266 20.0474C9.76597 20.2641 9.43009 20.2641 9.2134 20.0474L7.5449 18.3791C7.32821 18.1624 7.32821 17.8266 7.5449 17.6099L9.2134 15.9416C9.43009 15.7358 9.7768 15.7358 9.98266 15.9416Z" fill="#0B0F15"/>
<path d="M18.378 15.7033L20.2957 17.6208C20.5124 17.8375 20.5124 18.1733 20.2957 18.39L18.378 20.3075C18.1613 20.5242 17.8254 20.5242 17.6087 20.3075L15.691 18.39C15.4743 18.1733 15.4743 17.8375 15.691 17.6208L17.6087 15.7033C17.8254 15.4867 18.1721 15.4867 18.378 15.7033Z" fill="#0B0F15"/>
</g>
<defs>
<filter id="filter0_i_2_381" x="0" y="0" width="36" height="40" filterUnits="userSpaceOnUse" color-interpolation-filters="sRGB">
<feFlood flood-opacity="0" result="BackgroundImageFix"/>
<feBlend mode="normal" in="SourceGraphic" in2="BackgroundImageFix" result="shape"/>
<feColorMatrix in="SourceAlpha" type="matrix" values="0 0 0 0 0 0 0 0 0 0 0 0 0 0 0 0 0 0 127 0" result="hardAlpha"/>
<feOffset dy="4"/>
<feGaussianBlur stdDeviation="2"/>
<feComposite in2="hardAlpha" operator="arithmetic" k2="-1" k3="1"/>
<feColorMatrix type="matrix" values="0 0 0 0 1 0 0 0 0 1 0 0 0 0 1 0 0 0 0.25 0"/>
<feBlend mode="overlay" in2="shape" result="effect1_innerShadow_2_381"/>
</filter>
<linearGradient id="paint0_linear_2_381" x1="18" y1="0" x2="18" y2="7.41176" gradientUnits="userSpaceOnUse">
<stop stop-color="white" stop-opacity="0.5"/>
<stop offset="1" stop-color="white" stop-opacity="0"/>
</linearGradient>
</defs>
</svg>
