<svg width="150" height="19" viewBox="0 0 150 19" fill="none" xmlns="http://www.w3.org/2000/svg">
<g filter="url(#filter0_i_2_462)">
<path d="M25.3004 5.82153C25.3004 7.17847 24.8745 8.36376 24.0228 9.37738C24.6768 10.1621 25.0798 11.0695 25.2319 12.0995C25.384 13.1294 25.2624 14.1267 24.8669 15.0913C24.4715 16.0559 23.8631 16.8243 23.0418 17.3965C22.2205 17.9523 21.3232 18.2302 20.3498 18.2302H0V0.5H20.3498C21.7186 0.5 22.8821 1.02316 23.8403 2.06948C24.8137 3.09946 25.3004 4.35014 25.3004 5.82153ZM20.6692 13.9877C21.0342 13.9877 21.346 13.8488 21.6046 13.5708C21.8631 13.2929 21.9924 12.9578 21.9924 12.5654C21.9924 12.173 21.8631 11.8379 21.6046 11.5599C21.346 11.282 21.0342 11.1431 20.6692 11.1431H3.94677V13.9877H20.6692ZM20.6692 7.58719C21.0342 7.58719 21.346 7.44823 21.6046 7.1703C21.8631 6.89237 21.9924 6.55722 21.9924 6.16485C21.9924 5.77248 21.8631 5.4455 21.6046 5.18392C21.346 4.90599 21.0342 4.76703 20.6692 4.76703H3.94677V7.58719H20.6692Z" fill="url(#paint0_radial_2_462)"/>
<path d="M32.8289 18.2302H28.8821V0.5H32.8289V18.2302Z" fill="url(#paint1_radial_2_462)"/>
<path d="M60.4791 4.76703H50.4183V18.2302H46.4715V4.76703H36.4106V0.5H60.4791V4.76703Z" fill="url(#paint2_radial_2_462)"/>
<path d="M64.0608 0.5H68.0076V13.9877H84.8441V18.2302H64.0608V0.5Z" fill="#C8E4FF"/>
<path d="M92.3726 18.2302H88.4259V0.5H92.3726V18.2302Z" fill="#C8E4FF"/>
<path d="M110.966 7.78338C111.817 7.89782 112.471 7.98774 112.928 8.05313C113.384 8.11853 114.03 8.21662 114.867 8.34741C115.719 8.46185 116.388 8.56812 116.875 8.66621C117.361 8.7643 117.97 8.8951 118.7 9.05858C119.445 9.20572 120.038 9.36104 120.479 9.52452C120.92 9.68801 121.422 9.87602 121.985 10.0886C122.548 10.2847 122.981 10.5054 123.285 10.7507C123.605 10.9796 123.909 11.2411 124.198 11.5354C124.502 11.8134 124.707 12.124 124.814 12.4673C124.92 12.7943 124.951 13.1458 124.905 13.5218C124.89 14.3229 124.532 15.0259 123.833 15.6308C123.118 16.2684 122.144 16.7916 120.913 17.2003C119.452 17.658 117.954 17.9768 116.418 18.1567C114.471 18.3856 112.586 18.5 110.76 18.5C109.011 18.5 107.217 18.361 105.376 18.0831C103.825 17.8706 102.266 17.4864 100.7 16.9305C99.2852 16.391 98.1825 15.7861 97.3916 15.1158C97.0114 14.7888 96.6844 14.3065 96.4106 13.6689C96.1369 13.015 95.9848 12.451 95.9544 11.9768L99.2624 12.0259L102.707 12.0504V12.0995C102.753 12.4918 102.875 12.8924 103.072 13.3011C103.392 13.9714 104.243 14.5272 105.627 14.9687C107.011 15.3937 108.738 15.6063 110.806 15.6063C112.875 15.6063 114.646 15.4019 116.122 14.9932C117.612 14.5681 118.418 14.045 118.54 13.4237C118.57 13.1948 118.433 12.9905 118.129 12.8106C117.825 12.6144 117.354 12.451 116.715 12.3202C116.076 12.173 115.399 12.0504 114.684 11.9523C113.985 11.8379 113.118 11.7153 112.084 11.5845C112.053 11.5845 112.03 11.5845 112.015 11.5845C112 11.5845 111.977 11.5845 111.947 11.5845C111.916 11.5681 111.886 11.5599 111.856 11.5599C107.445 10.9877 104.297 10.4074 102.411 9.8188C98.9582 8.73978 97.2167 7.19482 97.1863 5.18392C97.1711 5.05313 97.1787 4.86512 97.2091 4.61989H97.2319C97.308 4.03134 97.6198 3.5 98.1673 3.02589C98.7909 2.50272 99.6806 2.05313 100.837 1.67711C102.251 1.26839 103.635 0.990463 104.989 0.843324C106.738 0.647139 108.502 0.549046 110.281 0.549046C111.802 0.549046 113.316 0.622616 114.821 0.769755C115.977 0.884196 117.125 1.08038 118.266 1.35831C119.118 1.5545 119.939 1.84877 120.73 2.24114C121.262 2.48638 121.817 2.84605 122.395 3.32016C122.654 3.54905 122.882 3.79428 123.08 4.05586C123.46 4.43188 123.741 5.31471 123.924 6.70436H117.422C117.407 6.68801 117.392 6.65531 117.376 6.60627C117.361 6.55722 117.354 6.52452 117.354 6.50817C117.247 6.1812 117.118 5.92779 116.966 5.74796C116.433 4.97956 115.62 4.44823 114.525 4.15395C113.43 3.85967 112.023 3.71253 110.304 3.71253C108.51 3.71253 106.966 3.91689 105.673 4.32561C104.38 4.71798 103.673 5.20027 103.551 5.77248C103.521 6.1812 104.046 6.5327 105.125 6.82698C106.008 7.07221 107.954 7.39101 110.966 7.78338Z" fill="#C8E4FF"/>
<path d="M150 4.76703H139.939V18.2302H135.992V4.76703H125.932V0.5H150V4.76703Z" fill="#C8E4FF"/>
</g>
<defs>
<filter id="filter0_i_2_462" x="0" y="0.5" width="150" height="19" filterUnits="userSpaceOnUse" color-interpolation-filters="sRGB">
<feFlood flood-opacity="0" result="BackgroundImageFix"/>
<feBlend mode="normal" in="SourceGraphic" in2="BackgroundImageFix" result="shape"/>
<feColorMatrix in="SourceAlpha" type="matrix" values="0 0 0 0 0 0 0 0 0 0 0 0 0 0 0 0 0 0 127 0" result="hardAlpha"/>
<feOffset dy="1"/>
<feGaussianBlur stdDeviation="2.5"/>
<feComposite in2="hardAlpha" operator="arithmetic" k2="-1" k3="1"/>
<feColorMatrix type="matrix" values="0 0 0 0 1 0 0 0 0 1 0 0 0 0 1 0 0 0 0.6 0"/>
<feBlend mode="overlay" in2="shape" result="effect1_innerShadow_2_462"/>
</filter>
<radialGradient id="paint0_radial_2_462" cx="0" cy="0" r="1" gradientUnits="userSpaceOnUse" gradientTransform="translate(37.5 2) rotate(90) scale(14.5 120.833)">
<stop stop-color="#5CCCFE"/>
<stop offset="1" stop-color="#29BDFF"/>
</radialGradient>
<radialGradient id="paint1_radial_2_462" cx="0" cy="0" r="1" gradientUnits="userSpaceOnUse" gradientTransform="translate(37.5 2) rotate(90) scale(14.5 120.833)">
<stop stop-color="#5CCCFE"/>
<stop offset="1" stop-color="#29BDFF"/>
</radialGradient>
<radialGradient id="paint2_radial_2_462" cx="0" cy="0" r="1" gradientUnits="userSpaceOnUse" gradientTransform="translate(37.5 2) rotate(90) scale(14.5 120.833)">
<stop stop-color="#5CCCFE"/>
<stop offset="1" stop-color="#29BDFF"/>
</radialGradient>
</defs>
</svg>
