<svg width="20" height="18" viewBox="0 0 20 18" fill="none" xmlns="http://www.w3.org/2000/svg">
<path d="M18.7083 14.5L12.619 8.99996M7.38093 8.99996L1.29168 14.5M0.833313 4.41663L8.31782 9.65578C8.9239 10.08 9.22693 10.2922 9.55655 10.3743C9.84772 10.4469 10.1522 10.4469 10.4434 10.3743C10.773 10.2922 11.0761 10.08 11.6821 9.65578L19.1666 4.41663M5.23331 16.3333H14.7666C16.3068 16.3333 17.0769 16.3333 17.6651 16.0336C18.1826 15.7699 18.6033 15.3492 18.8669 14.8318C19.1666 14.2435 19.1666 13.4734 19.1666 11.9333V6.06663C19.1666 4.52648 19.1666 3.75641 18.8669 3.16815C18.6033 2.65071 18.1826 2.23001 17.6651 1.96636C17.0769 1.66663 16.3068 1.66663 14.7666 1.66663H5.23331C3.69317 1.66663 2.9231 1.66663 2.33484 1.96636C1.81739 2.23001 1.3967 2.65071 1.13305 3.16815C0.833313 3.75641 0.833313 4.52648 0.833313 6.06663V11.9333C0.833313 13.4734 0.833313 14.2435 1.13305 14.8318C1.3967 15.3492 1.81739 15.7699 2.33484 16.0336C2.9231 16.3333 3.69317 16.3333 5.23331 16.3333Z" stroke="#B2BEE2" stroke-width="1.4" stroke-linecap="round" stroke-linejoin="round"/>
</svg>
