<svg width="30" height="30" viewBox="0 0 30 30" fill="none" xmlns="http://www.w3.org/2000/svg">
<mask id="mask0_2_606" style="mask-type:alpha" maskUnits="userSpaceOnUse" x="0" y="0" width="30" height="30">
<circle cx="14.6154" cy="14.6154" r="14.6154" fill="#D9D9D9"/>
</mask>
<g mask="url(#mask0_2_606)">
<path d="M14.6154 -4.61536C3.99442 -4.61536 -4.61536 3.99442 -4.61536 14.6154C-4.61536 25.2364 3.99442 33.8462 14.6154 33.8462C25.2364 33.8462 33.8462 25.2364 33.8462 14.6154C33.8462 3.99442 25.2364 -4.61536 14.6154 -4.61536ZM22.4379 11.1378C22.4459 11.3021 22.4479 11.4664 22.4479 11.6266C22.4479 16.6346 18.6399 22.4059 11.6727 22.4059C9.614 22.4093 7.59812 21.818 5.86742 20.7032C6.16189 20.7392 6.46437 20.7532 6.77086 20.7532C8.5457 20.7532 10.1783 20.1503 11.4744 19.1326C10.6846 19.1171 9.91924 18.8556 9.28511 18.3845C8.65097 17.9134 8.17961 17.2562 7.93673 16.5044C8.50395 16.6123 9.08827 16.5897 9.64546 16.4383C8.78819 16.265 8.01725 15.8005 7.46338 15.1236C6.90952 14.4466 6.60681 13.599 6.6066 12.7244V12.6783C7.11742 12.9608 7.70235 13.133 8.32335 13.1531C7.51966 12.6181 6.95072 11.7962 6.73289 10.8557C6.51506 9.91508 6.66479 8.92682 7.15147 8.09298C8.1029 9.26285 9.28941 10.2199 10.6342 10.9021C11.9789 11.5843 13.452 11.9765 14.958 12.0533C14.7665 11.2406 14.8489 10.3875 15.1924 9.62644C15.5358 8.86542 16.1211 8.23919 16.8571 7.84511C17.5932 7.45103 18.4389 7.31117 19.2626 7.44729C20.0864 7.5834 20.8421 7.98786 21.4123 8.59778C22.26 8.43007 23.0729 8.11913 23.8161 7.67831C23.5336 8.55599 22.9421 9.30126 22.1515 9.77567C22.9024 9.68523 23.6356 9.48336 24.327 9.17671C23.8191 9.93772 23.1794 10.6019 22.4379 11.1378Z" fill="#3C4867"/>
</g>
</svg>
