<svg width="28" height="28" viewBox="0 0 28 28" fill="none" xmlns="http://www.w3.org/2000/svg">
<g id="coins-swap-01">
<g id="Icon" filter="url(#filter0_i_2_593)">
<path d="M7.00001 7.00001L9.33334 4.66668M9.33334 4.66668L7.00001 2.33334M9.33334 4.66668H7.00001C4.42268 4.66668 2.33334 6.75601 2.33334 9.33334M21 21L18.6667 23.3333M18.6667 23.3333L21 25.6667M18.6667 23.3333H21C23.5773 23.3333 25.6667 21.244 25.6667 18.6667M15.6534 15.6534C16.566 16.0893 17.5878 16.3333 18.6667 16.3333C22.5327 16.3333 25.6667 13.1993 25.6667 9.33334C25.6667 5.46735 22.5327 2.33334 18.6667 2.33334C14.8007 2.33334 11.6667 5.46735 11.6667 9.33334C11.6667 10.4122 11.9107 11.434 12.3466 12.3466M16.3333 18.6667C16.3333 22.5327 13.1993 25.6667 9.33334 25.6667C5.46735 25.6667 2.33334 22.5327 2.33334 18.6667C2.33334 14.8007 5.46735 11.6667 9.33334 11.6667C13.1993 11.6667 16.3333 14.8007 16.3333 18.6667Z" stroke="#52C5FA" stroke-width="1.8" stroke-linecap="round" stroke-linejoin="round"/>
</g>
</g>
<defs>
<filter id="filter0_i_2_593" x="1.43335" y="1.43335" width="25.1333" height="27.1333" filterUnits="userSpaceOnUse" color-interpolation-filters="sRGB">
<feFlood flood-opacity="0" result="BackgroundImageFix"/>
<feBlend mode="normal" in="SourceGraphic" in2="BackgroundImageFix" result="shape"/>
<feColorMatrix in="SourceAlpha" type="matrix" values="0 0 0 0 0 0 0 0 0 0 0 0 0 0 0 0 0 0 127 0" result="hardAlpha"/>
<feOffset dy="2"/>
<feGaussianBlur stdDeviation="1"/>
<feComposite in2="hardAlpha" operator="arithmetic" k2="-1" k3="1"/>
<feColorMatrix type="matrix" values="0 0 0 0 1 0 0 0 0 1 0 0 0 0 1 0 0 0 0.47 0"/>
<feBlend mode="overlay" in2="shape" result="effect1_innerShadow_2_593"/>
</filter>
</defs>
</svg>
