<svg width="32" height="32" viewBox="0 0 32 32" fill="none" xmlns="http://www.w3.org/2000/svg">
<g id="credit-card-lock">
<g id="Icon" filter="url(#filter0_i_2_554)">
<path d="M27 23.3333V21C27 19.7113 25.9554 18.6667 24.6667 18.6667C23.378 18.6667 22.3334 19.7113 22.3334 21V23.3333M29.3334 13.3333H2.66669M29.3334 14.6667V10.9333C29.3334 9.43987 29.3334 8.69313 29.0427 8.1227C28.787 7.62093 28.3791 7.21299 27.8773 6.95732C27.3069 6.66667 26.5602 6.66667 25.0667 6.66667H6.93335C5.43988 6.66667 4.69314 6.66667 4.12271 6.95732C3.62095 7.21298 3.213 7.62093 2.95734 8.1227C2.66669 8.69313 2.66669 9.43987 2.66669 10.9333V21.0667C2.66669 22.5601 2.66669 23.3069 2.95734 23.8773C3.213 24.3791 3.62095 24.787 4.12271 25.0427C4.69314 25.3333 5.43988 25.3333 6.93335 25.3333H14.6667M22.1334 28.6667H27.2C27.9468 28.6667 28.3201 28.6667 28.6053 28.5213C28.8562 28.3935 29.0602 28.1895 29.188 27.9387C29.3334 27.6534 29.3334 27.2801 29.3334 26.5333V25.4667C29.3334 24.7199 29.3334 24.3466 29.188 24.0614C29.0602 23.8105 28.8562 23.6065 28.6053 23.4787C28.3201 23.3333 27.9468 23.3333 27.2 23.3333H22.1334C21.3866 23.3333 21.0132 23.3333 20.728 23.4787C20.4772 23.6065 20.2732 23.8105 20.1453 24.0614C20 24.3466 20 24.7199 20 25.4667V26.5333C20 27.2801 20 27.6534 20.1453 27.9387C20.2732 28.1895 20.4772 28.3935 20.728 28.5213C21.0132 28.6667 21.3866 28.6667 22.1334 28.6667Z" stroke="#52C5FA" stroke-width="1.8" stroke-linecap="round" stroke-linejoin="round"/>
</g>
</g>
<defs>
<filter id="filter0_i_2_554" x="1.76666" y="5.76668" width="28.4667" height="25.8" filterUnits="userSpaceOnUse" color-interpolation-filters="sRGB">
<feFlood flood-opacity="0" result="BackgroundImageFix"/>
<feBlend mode="normal" in="SourceGraphic" in2="BackgroundImageFix" result="shape"/>
<feColorMatrix in="SourceAlpha" type="matrix" values="0 0 0 0 0 0 0 0 0 0 0 0 0 0 0 0 0 0 127 0" result="hardAlpha"/>
<feOffset dy="2"/>
<feGaussianBlur stdDeviation="1"/>
<feComposite in2="hardAlpha" operator="arithmetic" k2="-1" k3="1"/>
<feColorMatrix type="matrix" values="0 0 0 0 1 0 0 0 0 1 0 0 0 0 1 0 0 0 0.47 0"/>
<feBlend mode="overlay" in2="shape" result="effect1_innerShadow_2_554"/>
</filter>
</defs>
</svg>
