<svg width="32" height="32" viewBox="0 0 32 32" fill="none" xmlns="http://www.w3.org/2000/svg">
<g id="lock-01">
<g id="Icon" filter="url(#filter0_i_2_569)">
<path d="M22.6667 13.3333V10.6667C22.6667 6.98477 19.6819 4 16 4C12.3181 4 9.33334 6.98477 9.33334 10.6667V13.3333M16 19.3333V22M11.7333 28H20.2667C22.5069 28 23.627 28 24.4826 27.564C25.2353 27.1805 25.8472 26.5686 26.2307 25.816C26.6667 24.9603 26.6667 23.8402 26.6667 21.6V19.7333C26.6667 17.4931 26.6667 16.373 26.2307 15.5174C25.8472 14.7647 25.2353 14.1528 24.4826 13.7693C23.627 13.3333 22.5069 13.3333 20.2667 13.3333H11.7333C9.49313 13.3333 8.37303 13.3333 7.51738 13.7693C6.76473 14.1528 6.15281 14.7647 5.76932 15.5174C5.33334 16.373 5.33334 17.4931 5.33334 19.7333V21.6C5.33334 23.8402 5.33334 24.9603 5.76932 25.816C6.15281 26.5686 6.76473 27.1805 7.51738 27.564C8.37303 28 9.49313 28 11.7333 28Z" stroke="#52C5FA" stroke-width="1.8" stroke-linecap="round" stroke-linejoin="round"/>
</g>
</g>
<defs>
<filter id="filter0_i_2_569" x="4.43335" y="3.10001" width="23.1333" height="27.8" filterUnits="userSpaceOnUse" color-interpolation-filters="sRGB">
<feFlood flood-opacity="0" result="BackgroundImageFix"/>
<feBlend mode="normal" in="SourceGraphic" in2="BackgroundImageFix" result="shape"/>
<feColorMatrix in="SourceAlpha" type="matrix" values="0 0 0 0 0 0 0 0 0 0 0 0 0 0 0 0 0 0 127 0" result="hardAlpha"/>
<feOffset dy="2"/>
<feGaussianBlur stdDeviation="1"/>
<feComposite in2="hardAlpha" operator="arithmetic" k2="-1" k3="1"/>
<feColorMatrix type="matrix" values="0 0 0 0 1 0 0 0 0 1 0 0 0 0 1 0 0 0 0.47 0"/>
<feBlend mode="overlay" in2="shape" result="effect1_innerShadow_2_569"/>
</filter>
</defs>
</svg>
