<svg width="28" height="28" viewBox="0 0 28 28" fill="none" xmlns="http://www.w3.org/2000/svg">
<g id="message-dots-circle">
<g id="Icon" filter="url(#filter0_i_2_578)">
<path d="M8.75 14H8.76167M14 14H14.0117M19.25 14H19.2617M14 24.5C19.799 24.5 24.5 19.799 24.5 14C24.5 8.20101 19.799 3.5 14 3.5C8.20101 3.5 3.5 8.20101 3.5 14C3.5 15.3967 3.77269 16.7296 4.26774 17.9486C4.36249 18.1819 4.40986 18.2985 4.43099 18.3928C4.45167 18.4851 4.45923 18.5533 4.45924 18.6478C4.45925 18.7445 4.44171 18.8497 4.40663 19.0602L3.71481 23.2111C3.64237 23.6458 3.60615 23.8631 3.67355 24.0203C3.73255 24.1578 3.84216 24.2674 3.97972 24.3264C4.13688 24.3939 4.35421 24.3576 4.78889 24.2852L8.93976 23.5934C9.15027 23.5583 9.25552 23.5407 9.35215 23.5408C9.44668 23.5408 9.51494 23.5483 9.60717 23.569C9.70147 23.5901 9.81811 23.6375 10.0514 23.7323C11.2704 24.2273 12.6033 24.5 14 24.5ZM9.33333 14C9.33333 14.3222 9.07217 14.5833 8.75 14.5833C8.42783 14.5833 8.16667 14.3222 8.16667 14C8.16667 13.6778 8.42783 13.4167 8.75 13.4167C9.07217 13.4167 9.33333 13.6778 9.33333 14ZM14.5833 14C14.5833 14.3222 14.3222 14.5833 14 14.5833C13.6778 14.5833 13.4167 14.3222 13.4167 14C13.4167 13.6778 13.6778 13.4167 14 13.4167C14.3222 13.4167 14.5833 13.6778 14.5833 14ZM19.8333 14C19.8333 14.3222 19.5722 14.5833 19.25 14.5833C18.9278 14.5833 18.6667 14.3222 18.6667 14C18.6667 13.6778 18.9278 13.4167 19.25 13.4167C19.5722 13.4167 19.8333 13.6778 19.8333 14Z" stroke="#52C5FA" stroke-width="1.8" stroke-linecap="round" stroke-linejoin="round"/>
</g>
</g>
<defs>
<filter id="filter0_i_2_578" x="2.59998" y="2.60001" width="22.8" height="24.8" filterUnits="userSpaceOnUse" color-interpolation-filters="sRGB">
<feFlood flood-opacity="0" result="BackgroundImageFix"/>
<feBlend mode="normal" in="SourceGraphic" in2="BackgroundImageFix" result="shape"/>
<feColorMatrix in="SourceAlpha" type="matrix" values="0 0 0 0 0 0 0 0 0 0 0 0 0 0 0 0 0 0 127 0" result="hardAlpha"/>
<feOffset dy="2"/>
<feGaussianBlur stdDeviation="1"/>
<feComposite in2="hardAlpha" operator="arithmetic" k2="-1" k3="1"/>
<feColorMatrix type="matrix" values="0 0 0 0 1 0 0 0 0 1 0 0 0 0 1 0 0 0 0.47 0"/>
<feBlend mode="overlay" in2="shape" result="effect1_innerShadow_2_578"/>
</filter>
</defs>
</svg>
